<?xml version="1.0" standalone="no"?>
<!DOCTYPE svg PUBLIC "-//W3C//DTD SVG 20010904//EN"
 "http://www.w3.org/TR/2001/REC-SVG-20010904/DTD/svg10.dtd">
<svg version="1.0" xmlns="http://www.w3.org/2000/svg"
 width="1200.000000pt" height="1200.000000pt" viewBox="0 0 1200.000000 1200.000000"
 preserveAspectRatio="xMidYMid meet">
<metadata>
Created by potrace 1.14, written by Peter Selinger 2001-2017
</metadata>
<g transform="translate(0.000000,1200.000000) scale(0.100000,-0.100000)"
fill="#000000" stroke="none">
<path d="M5900 9583 c-47 -23 -61 -38 -103 -108 -23 -38 -45 -71 -49 -73 -5
-2 -8 -12 -8 -23 0 -10 -4 -19 -8 -19 -4 0 -19 -22 -33 -50 -13 -27 -27 -50
-31 -50 -5 0 -8 -7 -8 -15 0 -8 -4 -15 -10 -15 -5 0 -10 -4 -10 -10 0 -7 -75
-140 -95 -168 -2 -2 -33 -5 -70 -7 l-68 -5 -41 45 c-38 41 -135 148 -181 200
-113 126 -164 179 -187 191 -80 41 -176 -10 -213 -113 -9 -27 -36 -104 -60
-173 -24 -69 -58 -162 -74 -207 -17 -46 -28 -83 -24 -83 21 0 -27 -32 -70 -47
-77 -26 -77 -26 -137 26 -19 17 -38 31 -41 31 -4 0 -22 13 -40 30 -19 16 -37
30 -41 30 -4 0 -13 7 -22 15 -8 8 -65 53 -127 100 -116 88 -151 102 -217 92
-45 -8 -107 -73 -116 -121 -6 -33 -9 -52 -25 -156 -6 -36 -13 -76 -16 -89 -2
-12 -7 -43 -9 -67 -3 -24 -8 -54 -11 -66 -10 -45 -16 -84 -20 -121 -6 -49 -6
-50 -62 -83 -63 -36 -58 -37 -198 30 -114 55 -257 123 -329 156 -87 39 -172
11 -212 -70 -20 -39 -21 -84 -9 -426 l7 -202 -47 -38 c-53 -45 -52 -44 -125
-26 -30 8 -63 16 -73 18 -10 2 -26 5 -35 8 -9 3 -28 8 -42 10 -26 6 -82 19
-152 36 -24 6 -53 12 -65 14 -12 2 -37 9 -55 14 -66 20 -116 6 -165 -45 -37
-40 -50 -99 -34 -159 11 -41 20 -86 26 -119 1 -11 8 -40 15 -65 7 -25 14 -54
16 -65 2 -11 16 -75 32 -143 l29 -122 -41 -55 -41 -54 -125 6 c-69 3 -176 6
-237 7 -62 0 -113 3 -113 6 0 11 -101 0 -127 -14 -51 -26 -78 -71 -82 -137 -2
-36 7 -67 39 -140 23 -52 56 -125 73 -164 16 -38 40 -93 53 -121 13 -27 32
-74 43 -102 l21 -52 -30 -50 c-17 -28 -30 -54 -30 -59 0 -4 -6 -8 -12 -8 -16
-1 -77 -12 -98 -18 -8 -2 -37 -7 -65 -11 -27 -3 -53 -8 -56 -10 -3 -1 -28 -6
-55 -9 -27 -4 -56 -8 -65 -11 -9 -3 -32 -7 -50 -9 -19 -3 -45 -7 -59 -10 -14
-3 -41 -8 -60 -11 -54 -10 -89 -35 -110 -79 -22 -45 -26 -99 -10 -140 6 -15
58 -95 117 -178 183 -259 203 -290 203 -306 0 -9 -30 -48 -67 -87 -100 -104
-319 -336 -415 -438 -45 -49 -108 -115 -138 -146 -173 -180 -276 -294 -286
-318 -17 -43 -8 -114 26 -188 17 -37 34 -71 39 -74 4 -3 12 -13 17 -22 16 -29
131 -154 304 -331 142 -145 420 -426 420 -423 0 1 132 -129 294 -289 163 -159
339 -333 393 -385 53 -52 119 -120 146 -150 209 -233 284 -310 303 -310 6 0
10 10 9 23 -3 22 -47 164 -64 202 -44 100 -178 363 -192 375 -3 3 -31 45 -62
93 -32 49 -62 94 -67 100 -59 71 -229 320 -276 402 -6 11 -18 31 -25 45 -8 14
-27 44 -42 68 -30 47 -53 86 -100 172 -16 30 -34 60 -38 66 -36 47 -217 434
-202 434 3 0 1 6 -4 13 -5 6 -11 31 -12 54 -2 38 3 45 56 97 32 31 63 56 69
56 5 0 18 -19 29 -42 20 -47 79 -142 108 -173 10 -11 26 -32 35 -47 9 -16 20
-28 24 -28 4 0 8 -6 8 -14 0 -8 7 -16 15 -20 8 -3 15 -12 15 -21 0 -8 4 -15 8
-15 5 0 30 -29 57 -65 26 -36 51 -65 56 -65 5 0 9 -5 9 -10 0 -6 9 -21 21 -33
11 -12 39 -47 62 -77 23 -30 57 -71 74 -90 18 -19 36 -43 39 -52 3 -10 9 -18
13 -18 4 0 25 -24 46 -52 22 -29 47 -60 55 -68 8 -9 31 -36 50 -60 19 -23 47
-57 61 -74 94 -110 186 -225 238 -297 33 -46 64 -88 69 -94 4 -5 26 -34 47
-63 45 -59 60 -66 50 -21 -4 17 -9 39 -10 48 -2 9 -4 16 -5 16 -1 0 -3 9 -5
20 -2 10 -8 28 -13 40 -5 11 -22 52 -37 90 -50 125 -114 251 -213 422 -119
204 -342 651 -342 685 0 7 6 6 18 -3 9 -8 31 -21 47 -29 17 -8 32 -18 35 -21
7 -8 259 -133 302 -149 18 -7 35 -14 38 -15 3 -2 14 -6 25 -10 11 -4 53 -53
92 -108 40 -56 84 -114 98 -129 14 -15 25 -30 25 -33 0 -3 8 -13 18 -23 9 -10
31 -35 47 -56 117 -149 334 -360 487 -475 98 -73 260 -171 283 -171 8 0 17 -4
20 -10 6 -10 133 -50 167 -53 11 -1 32 -17 47 -37 14 -19 28 -37 31 -40 3 -3
28 -32 55 -65 161 -191 295 -321 521 -504 5 -4 21 -14 34 -21 13 -7 29 -17 34
-21 30 -25 89 -59 101 -59 8 0 15 -4 15 -9 0 -7 19 -17 70 -36 3 -1 27 -11 53
-23 27 -12 56 -22 66 -22 9 0 21 -4 26 -9 6 -5 28 -12 50 -15 22 -3 51 -8 65
-11 33 -8 166 -8 210 -1 108 18 189 49 294 113 66 40 195 165 253 243 62 85
107 170 91 171 -38 4 -58 7 -94 14 -21 4 -52 9 -69 12 -95 15 -330 89 -441
138 -75 34 -97 43 -108 43 -5 0 -12 4 -15 9 -3 4 -28 19 -56 33 -70 35 -219
123 -223 132 -2 5 -9 8 -16 8 -7 0 -21 9 -31 20 -10 11 -22 20 -27 20 -20 0
-212 157 -200 164 4 2 36 7 72 11 103 12 123 14 155 19 17 2 62 6 100 10 39 4
86 9 105 11 48 7 113 13 190 20 36 3 83 7 105 10 154 16 546 42 663 44 l43 1
-19 28 c-11 15 -29 37 -41 48 -11 12 -17 25 -14 28 4 3 0 6 -8 7 -8 0 -5 4 6
8 21 8 445 13 445 5 0 -3 -18 -32 -40 -64 -41 -60 -50 -81 -27 -62 25 21 165
54 289 69 117 13 399 7 528 -12 19 -3 57 -7 85 -11 27 -3 72 -10 100 -15 27
-6 64 -13 80 -15 17 -3 50 -9 75 -15 25 -5 56 -12 70 -15 79 -16 90 -19 110
-27 8 -3 28 -8 43 -11 l28 -7 -38 -47 c-50 -62 -118 -135 -172 -186 -25 -22
-52 -48 -62 -58 -33 -32 -166 -128 -177 -128 -5 0 -12 -4 -14 -9 -6 -17 -217
-131 -242 -131 -9 0 -16 -4 -16 -9 0 -4 -20 -14 -45 -21 -25 -7 -45 -17 -45
-22 0 -5 -4 -6 -10 -3 -5 3 -16 3 -22 -2 -11 -6 -100 -33 -159 -47 -16 -4 -70
-14 -114 -21 -11 -2 -36 -6 -57 -10 -35 -6 -150 -13 -232 -14 l-39 -1 55 -52
c106 -102 211 -168 382 -243 33 -14 61 -23 64 -21 2 3 16 -1 31 -8 23 -12 74
-25 121 -31 103 -13 144 -17 195 -17 52 0 86 3 205 17 21 2 69 13 130 30 77
20 174 57 270 103 73 35 210 116 210 124 0 4 4 8 10 8 13 0 93 57 190 134 112
89 110 87 307 284 100 100 187 182 193 182 5 0 12 0 15 0 2 0 43 21 90 45 47
25 85 41 85 37 0 -4 4 -2 8 4 4 6 41 28 82 50 41 21 81 44 88 51 7 7 20 13 28
13 8 0 14 5 14 10 0 6 7 10 15 10 8 0 15 4 15 9 0 5 8 12 18 15 22 8 44 22
121 76 35 25 73 52 85 60 24 16 108 81 116 90 3 3 32 27 65 55 66 54 241 228
293 291 17 21 44 54 60 73 15 18 48 65 75 104 42 63 56 76 125 113 104 55 124
67 140 82 7 6 20 12 28 12 8 0 14 4 14 8 0 5 16 17 35 28 19 10 35 22 35 26 0
5 6 8 14 8 8 0 16 3 18 8 6 13 79 64 85 59 3 -3 -1 -23 -8 -44 -7 -21 -14 -42
-15 -48 -12 -55 -224 -568 -272 -660 -9 -16 -17 -32 -18 -35 -9 -29 -30 -70
-36 -70 -4 0 -8 -4 -8 -10 0 -5 -22 -55 -50 -110 -27 -55 -50 -104 -51 -108
-2 -8 -9 -27 -39 -102 -19 -46 -28 -72 -45 -130 -1 -3 -4 -12 -8 -20 -3 -8
-13 -42 -22 -75 -37 -129 -29 -147 25 -62 19 28 53 82 77 119 24 37 43 71 43
76 0 4 8 17 18 28 9 10 30 39 47 64 16 25 32 47 35 50 6 6 78 110 100 144 13
20 307 447 383 556 14 19 25 39 25 43 1 4 7 14 14 22 27 30 38 44 38 50 0 3
16 28 35 55 19 27 35 54 35 60 0 5 4 10 9 10 5 0 13 9 16 20 3 11 12 26 18 32
7 7 25 40 41 73 16 33 31 62 32 63 1 2 23 -11 48 -30 41 -30 49 -44 48 -88 0
-40 -16 -140 -32 -195 -10 -38 -26 -97 -35 -130 -9 -33 -18 -67 -21 -75 -3 -8
-4 -15 -2 -16 2 0 -2 -7 -8 -15 -6 -8 -15 -27 -19 -44 -10 -35 -9 -34 -19 -60
-16 -42 -19 -50 -22 -65 -2 -8 -7 -23 -13 -35 -20 -40 -51 -125 -45 -125 4 0
2 -6 -4 -12 -6 -7 -25 -49 -42 -93 -18 -44 -37 -91 -43 -105 -5 -14 -10 -28
-9 -32 1 -5 -2 -8 -8 -8 -5 0 -10 -8 -10 -17 0 -10 -36 -90 -80 -179 -96 -196
-180 -402 -196 -483 -3 -13 -9 -32 -15 -43 -5 -10 -7 -18 -4 -18 3 0 1 -8 -4
-18 -5 -9 -11 -30 -14 -47 -3 -16 -10 -52 -16 -78 -15 -64 -22 -177 -11 -177
17 0 132 172 245 365 20 34 121 178 140 199 6 6 19 24 29 41 11 16 23 34 28
40 5 5 31 42 58 80 27 39 53 75 58 80 5 6 17 24 28 40 10 17 21 32 25 35 3 3
25 34 49 70 24 36 48 70 52 75 5 6 31 42 58 80 27 39 54 75 60 82 5 7 10 16
10 21 0 4 8 17 18 28 18 19 130 180 263 379 41 61 76 112 79 115 15 15 50 71
50 80 0 5 5 10 10 10 6 0 10 4 10 9 0 4 22 41 49 82 58 89 124 210 140 261 33
100 12 180 -62 238 -29 22 -56 43 -62 48 -5 4 -32 23 -60 42 -27 19 -52 37
-55 40 -3 3 -39 30 -80 60 -41 30 -79 58 -85 63 -5 4 -48 36 -95 70 -47 34
-86 65 -88 70 -2 4 -8 7 -13 7 -10 0 -69 44 -113 83 -11 9 -23 17 -27 17 -4 0
-14 6 -21 13 -7 7 -59 46 -115 86 -94 68 -111 87 -117 127 -1 7 -5 16 -8 20
-4 3 -4 13 -1 22 8 22 86 136 96 140 4 2 7 10 7 18 0 8 3 14 8 14 4 0 12 9 17
19 14 28 127 193 142 209 7 7 13 17 13 21 0 4 9 18 20 31 11 13 21 32 21 44 1
12 3 32 4 45 3 30 -16 78 -43 108 -18 21 -82 55 -99 52 -5 -1 -10 0 -13 1 -3
1 -14 3 -25 4 -20 3 -68 11 -115 21 -14 2 -41 6 -60 9 -19 3 -60 10 -90 15
-89 18 -93 18 -148 26 -52 7 -53 8 -82 65 l-30 58 31 74 c17 40 36 84 41 98 6
14 12 27 13 30 2 6 11 28 70 165 26 61 52 121 58 135 16 38 17 102 2 135 -7
17 -28 44 -45 60 l-31 30 -167 -2 c-92 -1 -224 -4 -293 -6 -69 -3 -130 -2
-135 1 -5 4 -26 28 -47 53 -37 46 -40 63 -20 124 4 11 7 25 8 30 2 20 17 91
32 150 8 33 16 71 18 85 2 14 4 26 6 28 2 3 4 10 14 57 5 22 10 42 10 45 18
73 23 122 14 135 -3 6 -9 23 -13 38 -8 35 -87 87 -132 87 -17 0 -69 -9 -115
-21 -46 -12 -88 -22 -94 -23 -5 -1 -16 -5 -22 -9 -7 -5 -13 -6 -13 -3 0 2 -29
-4 -65 -14 -36 -10 -65 -16 -65 -13 0 3 -7 0 -15 -7 -8 -7 -15 -10 -15 -7 0 3
-32 -3 -72 -13 -81 -21 -88 -19 -140 38 -34 37 -35 41 -32 108 8 161 12 491 7
517 -8 40 -72 107 -108 113 -16 2 -35 6 -41 8 -6 2 -24 -2 -40 -9 -16 -8 -76
-36 -134 -63 -58 -27 -136 -64 -175 -82 -38 -18 -96 -45 -127 -60 l-57 -28
-58 30 c-32 16 -59 31 -61 33 -3 3 -10 37 -18 85 -3 19 -9 60 -14 90 -5 30
-12 73 -15 95 -42 283 -52 326 -86 356 -17 15 -50 34 -73 42 -54 18 -93 5
-180 -60 -36 -26 -74 -55 -86 -63 -12 -8 -31 -23 -43 -32 -12 -10 -73 -55
-136 -102 l-114 -84 -33 14 c-18 8 -42 14 -52 14 -19 0 -59 36 -55 49 2 3 -5
29 -14 56 -9 28 -18 55 -20 60 -5 19 -63 180 -73 200 -5 11 -12 31 -15 45 -15
54 -58 153 -74 169 -46 46 -71 52 -167 42 -13 -1 -80 -65 -144 -137 -25 -29
-76 -87 -115 -129 -38 -43 -82 -92 -97 -109 -68 -80 -61 -76 -128 -61 -8 2
-26 4 -40 4 -21 1 -37 20 -100 126 -41 69 -85 142 -98 163 -13 20 -25 45 -29
55 -3 9 -9 17 -14 17 -5 0 -9 5 -9 10 0 15 -69 122 -89 138 -43 34 -102 45
-141 25z m2825 -5689 c-16 -14 -41 -33 -55 -42 -14 -9 -48 -33 -77 -54 -48
-35 -130 -63 -247 -84 -16 -3 -40 -10 -53 -15 -12 -4 -24 -5 -24 -1 -7 39 -3
114 5 120 11 7 18 8 71 16 17 3 64 12 105 21 41 8 86 18 100 21 14 3 61 13
105 24 104 24 105 24 70 -6z m-5325 -20 c14 -2 46 -9 72 -15 25 -6 57 -12 70
-14 149 -22 163 -27 166 -62 2 -23 -6 -43 -34 -81 l-38 -50 -65 35 c-71 37
-127 80 -206 156 -48 47 -49 48 -20 42 17 -3 41 -8 55 -11z"/>
</g>
</svg>
